<svg id="svg-icon-composite-part-button" viewBox="0 0 21 20"><path fill-rule="evenodd" clip-rule="evenodd" d="M10.004.4l-4.8 2.646v5.308l4.8 2.646 4.8-2.646V3.046L10.004.4zM0 11.643l4.8-2.646 4.8 2.646v5.308l-4.8 2.646L0 16.951v-5.308zm10.404 0l4.8-2.646 4.8 2.646v5.308l-4.8 2.646-4.8-2.646v-5.308z" fill="#333"></path><path fill-rule="evenodd" clip-rule="evenodd" d="M6.004 3.39l4-2.09 4 2.09v4.62l-4 2.09-4-2.09V3.39zM.8 11.987l4-2.09 4 2.09v4.62l-4 2.09-4-2.09v-4.62zm14.404-2.09l-4 2.09v4.62l4 2.09 4-2.09v-4.62l-4-2.09z" fill="#fff"></path><path fill-rule="evenodd" clip-rule="evenodd" d="M5.632 3.761l.344-.722 4.028 1.918 4.028-1.918.344.722-3.972 1.892V10.4h-.8V5.653L5.632 3.76zm5.2 8.597l.344-.722 4.028 1.918 4.028-1.918.344.722-3.972 1.892v4.747h-.8V14.25l-3.972-1.892zM4.4 14.25L.428 12.358l.344-.722L4.8 13.554l4.028-1.918.344.722L5.2 14.25v4.747h-.8V14.25z" fill="#333"></path></svg>
